<?xml version="1.0" encoding="UTF-8"?>
<!DOCTYPE svg PUBLIC "-//W3C//DTD SVG 1.1//EN" "http://www.w3.org/Graphics/SVG/1.1/DTD/svg11.dtd">
<!-- Creator: CorelDRAW X6 -->
<svg xmlns="http://www.w3.org/2000/svg" xml:space="preserve" width="131.527mm" height="131.527mm" version="1.1" style="shape-rendering:geometricPrecision; text-rendering:geometricPrecision; image-rendering:optimizeQuality; fill-rule:evenodd; clip-rule:evenodd"
viewBox="0 0 12299 12299"
 xmlns:xlink="http://www.w3.org/1999/xlink">
 <defs>
  <style type="text/css">
   <![CDATA[
    .fil0 {fill:#5EBC36}
    .fil1 {fill:white}
   ]]>
  </style>
 </defs>
 <g id="Слой_x0020_1">
  <metadata id="CorelCorpID_0Corel-Layer"/>
  <g id="_115360136">
   <rect class="fil0" width="12299" height="12299" rx="562" ry="562"/>
   <path class="fil1" d="M2355 9424c-9,-2106 -19,-4212 -28,-6318 27,-223 181,-311 337,-309l3145 0c278,-5 241,1049 21,1067l-2127 7 0 1846 1966 0c302,70 267,927 21,1095l-1973 0 0 2590c-7,175 -1304,143 -1362,21z"/>
   <path class="fil1" d="M7297 2909c74,-154 1086,-246 1348,-28l28 5504 1544 -7c244,-2 236,1151 -14,1130l-2401 0c-417,29 -481,-86 -505,-323l0 -6276z"/>
  </g>
 </g>
</svg>
